<?xml version="1.0" standalone="no"?>
<!DOCTYPE svg PUBLIC "-//W3C//DTD SVG 20010904//EN"
 "http://www.w3.org/TR/2001/REC-SVG-20010904/DTD/svg10.dtd">
<svg version="1.0" xmlns="http://www.w3.org/2000/svg"
 width="50.000000pt" height="50.000000pt" viewBox="0 0 50.000000 50.000000"
 preserveAspectRatio="xMidYMid meet">

<g transform="translate(0.000000,50.000000) scale(0.100000,-0.100000)"
fill="#000000" stroke="none">
<path d="M185 460 c-3 -5 -28 -10 -55 -10 -59 0 -77 -15 -86 -75 -4 -30 -13
-49 -26 -56 -13 -7 -18 -19 -16 -37 l3 -27 245 0 245 0 3 27 c2 18 -3 30 -16
37 -13 7 -22 26 -26 56 -9 60 -27 75 -86 75 -27 0 -52 5 -55 10 -3 6 -33 10
-65 10 -32 0 -62 -4 -65 -10z m121 -19 c5 -6 33 -11 63 -13 l55 -3 11 -52 12
-53 -197 0 -197 0 12 53 11 52 55 3 c30 2 58 7 64 13 5 5 30 9 55 9 25 0 50
-4 56 -9z"/>
<path d="M31 218 c0 -7 13 -49 27 -93 l27 -80 165 0 165 0 27 80 c14 44 27 86
27 93 1 9 -49 12 -219 12 -170 0 -220 -3 -219 -12z m149 -83 c0 -37 -4 -65
-10 -65 -6 0 -10 28 -10 65 0 37 4 65 10 65 6 0 10 -28 10 -65z m80 0 c0 -37
-4 -65 -10 -65 -6 0 -10 28 -10 65 0 37 4 65 10 65 6 0 10 -28 10 -65z m80 0
c0 -37 -4 -65 -10 -65 -6 0 -10 28 -10 65 0 37 4 65 10 65 6 0 10 -28 10 -65z"/>
</g>
</svg>
