<?xml version="1.0" standalone="no"?>
<!DOCTYPE svg PUBLIC "-//W3C//DTD SVG 20010904//EN"
 "http://www.w3.org/TR/2001/REC-SVG-20010904/DTD/svg10.dtd">
<svg version="1.0" xmlns="http://www.w3.org/2000/svg"
 width="181.000000pt" height="31.000000pt" viewBox="0 0 181.000000 31.000000"
 preserveAspectRatio="xMidYMid meet">

<g transform="translate(0.000000,31.000000) scale(0.100000,-0.100000)"
fill="#000000" stroke="none">
<path d="M51 261 c-37 -37 -25 -77 32 -106 56 -28 45 -80 -17 -80 -31 0 -36
-3 -34 -20 5 -32 71 -33 103 -1 46 46 31 94 -46 147 -30 20 -17 39 27 39 28 0
35 4 32 18 -5 27 -71 29 -97 3z"/>
<path d="M180 260 c0 -13 7 -20 20 -20 19 0 20 -7 20 -105 0 -98 1 -105 20
-105 19 0 20 7 20 105 0 98 1 105 20 105 13 0 20 7 20 20 0 18 -7 20 -60 20
-53 0 -60 -2 -60 -20z"/>
<path d="M330 155 l0 -125 65 0 c58 0 65 2 65 20 0 17 -7 20 -45 20 l-45 0 0
40 c0 39 1 40 35 40 28 0 35 4 35 20 0 16 -7 20 -35 20 -31 0 -35 3 -35 25 0
23 4 25 45 25 38 0 45 3 45 20 0 18 -7 20 -65 20 l-65 0 0 -125z"/>
<path d="M506 203 c-3 -42 -6 -98 -6 -125 0 -41 3 -48 20 -48 18 0 20 7 20 60
l0 60 34 0 33 0 7 -60 c6 -52 10 -60 28 -60 17 0 19 5 15 32 -4 18 -9 66 -13
107 -8 90 -25 111 -88 111 l-43 0 -7 -77z m88 21 c10 -27 7 -34 -19 -34 -20 0
-25 5 -25 25 0 29 34 36 44 9z"/>
<path d="M961 261 c-37 -37 -25 -77 32 -106 56 -28 45 -80 -17 -80 -31 0 -36
-3 -34 -20 5 -32 71 -33 103 -1 46 46 31 94 -46 147 -30 20 -17 39 27 39 28 0
35 4 32 18 -5 27 -71 29 -97 3z"/>
<path d="M1090 260 c0 -13 7 -20 20 -20 19 0 20 -7 20 -105 0 -98 1 -105 20
-105 19 0 20 7 20 105 0 98 1 105 20 105 13 0 20 7 20 20 0 18 -7 20 -60 20
-53 0 -60 -2 -60 -20z"/>
<path d="M1271 253 c-28 -35 -34 -63 -29 -124 14 -145 158 -121 158 26 0 102
-79 162 -129 98z m75 -28 c21 -32 15 -128 -9 -153 -16 -15 -18 -15 -34 1 -34
34 -19 177 18 177 5 0 16 -11 25 -25z"/>
<path d="M1440 155 c0 -117 1 -125 20 -125 16 0 19 8 22 62 4 82 23 83 53 3
16 -44 27 -61 43 -63 l21 -3 -22 66 c-20 63 -21 67 -4 76 23 13 23 71 -1 92
-13 12 -37 17 -75 17 l-57 0 0 -125z m105 60 c0 -15 -8 -21 -32 -23 -30 -3
-33 -1 -33 23 0 24 3 26 33 23 24 -2 32 -8 32 -23z"/>
<path d="M1630 155 l0 -125 65 0 c58 0 65 2 65 20 0 17 -7 20 -45 20 l-45 0 0
40 c0 39 1 40 35 40 28 0 35 4 35 20 0 16 -7 20 -35 20 -31 0 -35 3 -35 25 0
23 4 25 45 25 38 0 45 3 45 20 0 18 -7 20 -65 20 l-65 0 0 -125z"/>
<path d="M710 211 c0 -32 -3 -86 -6 -120 -6 -57 -6 -61 14 -61 18 0 21 8 27
66 l8 66 21 -27 22 -28 22 29 21 29 1 -30 c1 -67 12 -105 31 -105 18 0 19 7
13 117 -4 65 -9 120 -11 122 -2 3 -11 -5 -19 -18 -9 -12 -26 -34 -38 -48 l-23
-26 -34 46 c-19 25 -37 46 -41 47 -5 0 -8 -26 -8 -59z"/>
</g>
</svg>
